<svg viewBox="0 0 1024 1024" version="1.1" xmlns="http://www.w3.org/2000/svg"><path fill="#ffffff"  stroke="none" opacity="1" d="M 601.5 89 L 605.5 89 L 634.5 105 Q 652.6 115.4 666.5 130 L 668 126.5 L 671 105.5 L 675.5 99 L 681.5 99 L 697 114.5 L 712.5 139 L 726.5 124 L 735.5 117 L 741.5 116 L 745 120.5 L 745 154 L 766.5 153 L 767.5 152 L 790.5 152 Q 795 153 794 159.5 L 772.5 182 Q 808.8 194.7 834 218.5 L 835 225.5 L 825.5 231 L 815.5 233 L 797 239.5 L 828 273.5 L 837 285.5 L 838 292.5 L 833.5 296 L 803.5 297 L 796 298.5 L 803 317.5 L 807 333.5 L 810 349.5 L 810 355.5 L 806.5 360 L 802.5 360 L 772 348 L 770 359.5 L 764 378.5 L 758 392.5 L 754.5 396 Q 748.1 395.9 746 391.5 L 742 384 L 739 385.5 Q 732.4 397.9 721.5 406 L 701.5 418 L 694.5 419 Q 691.3 417.8 692 414 L 679 419.5 L 680 420.5 L 680 428.5 L 682 439 Q 697.5 437.7 704 446.5 Q 711.1 464.4 722.5 478 Q 736.6 485.9 747.5 497 L 760.5 497 L 761.5 496 L 783.5 496 L 784.5 497 L 795.5 497 L 796.5 498 L 814.5 500 L 844.5 508 Q 868 516 882 533.5 L 892 553.5 L 894 562.5 L 895 582.5 L 894 583.5 L 894 595.5 L 893 596.5 L 891 620.5 L 883 659.5 Q 876.9 681.9 861.5 695 Q 851.7 703.5 836 705 L 835 708.5 L 832 743.5 L 829 759.5 L 829 766.5 L 828 767.5 L 828 774.5 L 824 797.5 L 820 836 L 840 845.5 L 841 851.5 L 840 854 Q 837.9 855.6 832.5 855 L 815.5 847 L 702.5 802 L 655.5 781 L 644.5 779 L 617.5 777 L 606.5 774 L 591.5 781 L 574.5 782 L 560.5 779 Q 550.2 775.3 544.5 767 L 520.5 767 L 511.5 764 L 497.5 756 L 477.5 739 Q 471.1 742.2 470 749 L 514.5 770 L 526.5 777 L 532 782.5 L 536 792.5 L 536 800.5 L 533 811.5 Q 530.8 818.3 525.5 822 L 506.5 828 L 381.5 853 L 376.5 855 L 313.5 867 L 301.5 867 Q 220.2 820.8 145 768.5 L 141 757.5 L 140 748.5 L 133 736.5 L 131 701.5 L 130 700.5 L 129 679.5 L 127 668.5 L 124 627.5 L 123 626.5 L 123 616.5 L 122 615.5 L 122 605.5 L 121 604.5 L 121 594.5 L 120 593.5 L 120 583.5 L 119 582.5 L 119 572.5 L 118 571.5 L 118 560.5 L 117 559.5 L 114 516.5 L 117.5 512 Q 120.2 509.2 126.5 510 L 261 560 L 259 549.5 L 259 534.5 L 262 520.5 L 266 511.5 L 277.5 498 L 295.5 490 L 320.5 486 L 335.5 478 L 351.5 477 L 364.5 483 L 378 496.5 L 392 516.5 L 393 520 L 408.5 525 Q 421.6 532.9 431 544.5 L 437.5 556 L 460.5 570 L 464.5 571 L 490.5 554 L 534.5 516 L 566.5 494 L 571 489.5 L 583 474 L 561.5 478 L 538.5 479 L 512.5 474 L 499.5 469 Q 482.6 459.4 471 444.5 L 465 435.5 L 460.5 425 Q 452.1 421.4 447 414.5 Q 439.6 407.9 439 394.5 L 447.5 384 L 457 376.5 L 459 371.5 L 459 353.5 L 458 352.5 L 457 334.5 L 456 333.5 L 453.5 314 L 436.5 330 L 431.5 331 Q 427.1 329.4 428 322.5 L 434 297.5 L 442 275.5 L 439.5 275 L 407.5 288 L 394.5 292 L 387.5 292 Q 382.8 290.8 384 283.5 Q 404.4 250.9 432 225.5 L 391.5 223 L 386 218.5 L 387 212.5 L 394.5 205 Q 417.5 188 445.5 176 L 473 166.5 L 452.5 151 L 445 143.5 Q 443.8 137.3 447.5 136 L 458.5 133 L 477.5 132 L 478.5 131 L 509.5 131 L 510.5 132 L 522.5 132 L 523.5 133 L 536.5 134 L 534 130.5 L 518 108.5 Q 515.2 105.8 516 99.5 L 520.5 95 L 525.5 95 Q 569.6 102.7 602 121 L 597 93.5 L 599.5 90 L 601.5 89 Z M 615 109 L 615 119 L 617 125 L 618 141 L 614 144 L 608 143 Q 594 131 577 124 L 539 112 L 556 138 Q 559 140 558 147 L 554 150 L 533 148 L 532 147 L 523 147 L 522 146 L 511 146 L 510 145 L 469 146 L 496 169 L 495 174 L 491 176 L 487 176 L 473 180 L 448 190 L 411 211 L 452 211 L 456 213 L 457 216 L 457 220 Q 430 243 409 272 L 407 275 L 438 262 L 454 257 L 457 253 L 461 250 L 465 251 L 468 256 Q 466 260 467 269 L 466 270 L 467 306 L 504 263 L 511 257 L 515 258 L 518 264 Q 522 285 530 303 L 549 268 Q 550 263 556 264 L 560 269 L 573 293 L 595 326 L 605 296 L 605 293 L 610 287 L 615 288 L 617 291 L 642 341 L 652 327 Q 662 314 680 310 L 697 310 L 711 317 L 719 327 L 723 335 L 726 347 L 726 363 L 724 373 Q 720 386 712 396 L 708 401 L 713 398 Q 728 386 736 368 L 741 364 L 745 366 L 752 376 L 756 365 L 761 335 L 766 331 L 795 343 L 790 320 L 783 300 L 779 293 L 779 290 L 784 286 L 819 284 L 805 267 Q 794 253 780 243 Q 775 242 776 235 L 786 229 L 811 221 Q 815 222 814 219 L 780 199 L 756 190 L 752 186 L 753 183 L 770 165 L 733 169 L 730 166 L 731 161 L 731 141 L 732 140 L 731 139 Q 722 146 717 158 Q 715 161 710 160 L 705 156 L 696 137 L 684 120 L 680 133 L 678 151 Q 677 155 670 153 L 666 149 L 647 130 L 615 109 Z M 508 279 Q 486 301 468 328 L 470 338 L 470 345 L 471 346 L 471 356 L 472 357 L 472 376 L 468 385 L 462 391 L 453 397 Q 452 402 455 405 Q 461 413 472 417 L 477 430 L 488 444 L 498 452 L 511 459 L 534 465 L 559 465 L 560 464 L 572 463 L 602 454 L 616 446 L 621 447 Q 624 449 623 456 L 618 461 L 604 468 L 596 470 L 609 504 L 609 509 L 605 518 L 606 519 L 647 487 L 674 459 L 669 441 L 667 419 Q 659 420 656 415 Q 654 407 659 405 L 667 405 L 668 406 Q 684 406 692 398 Q 708 387 713 364 L 713 347 Q 712 337 707 332 Q 703 325 695 323 L 682 323 L 668 330 Q 654 342 646 360 L 642 363 L 639 362 L 636 360 L 613 313 L 602 347 Q 601 351 595 350 L 589 345 L 580 327 L 555 288 Q 556 285 553 286 L 536 321 L 531 326 L 527 326 L 519 314 L 511 293 L 508 279 Z M 453 284 L 445 305 L 446 306 L 453 298 L 453 284 Z M 707 401 L 707 402 L 707 401 Z M 706 402 L 706 403 L 706 402 Z M 692 453 Q 686 467 677 477 Q 646 508 609 532 L 636 565 Q 635 567 638 566 L 681 519 L 698 497 L 707 481 Q 701 465 692 453 Z M 589 488 L 580 498 L 573 515 L 574 522 L 585 535 L 596 508 Q 595 497 590 490 Q 591 487 589 488 Z M 345 489 L 340 490 L 330 495 L 308 508 L 301 515 L 297 524 L 295 533 Q 295 553 303 565 L 308 569 L 310 569 L 311 567 L 313 546 L 318 529 L 325 523 L 345 517 Q 353 515 355 520 L 354 524 Q 350 529 342 531 L 347 537 L 351 540 Q 361 539 366 543 L 368 548 L 367 552 L 365 553 Q 357 554 354 551 Q 334 550 325 558 L 323 560 L 320 576 L 326 579 L 339 579 L 346 577 L 357 577 L 360 582 L 360 584 L 356 589 L 365 596 Q 377 598 383 592 Q 394 582 398 565 L 398 555 L 392 540 L 369 507 L 357 494 Q 352 490 345 489 Z M 718 490 Q 693 529 662 561 L 639 583 L 634 582 L 612 556 L 599 542 L 597 542 L 590 562 L 585 591 L 585 598 L 583 605 L 581 629 L 580 630 L 579 661 L 578 662 L 580 663 L 596 666 L 604 670 L 614 668 L 647 666 L 649 662 Q 652 657 661 658 L 662 657 L 682 596 Q 688 582 696 572 Q 708 555 729 546 Q 739 544 741 550 L 740 555 L 719 566 Q 704 578 696 596 L 685 626 L 675 659 Q 697 662 710 674 L 721 688 Q 722 694 718 695 L 713 695 Q 705 685 694 678 L 682 673 L 673 671 L 669 672 L 684 680 Q 695 688 700 703 L 699 706 Q 698 709 692 708 L 686 701 L 669 685 L 660 681 L 651 679 L 630 679 L 629 680 L 616 680 L 623 694 L 627 709 L 627 733 L 625 744 Q 622 755 616 764 L 625 765 L 634 765 L 635 766 L 658 767 L 659 768 L 671 768 L 672 769 L 705 769 L 715 767 L 726 761 Q 743 745 752 721 L 761 695 L 767 672 L 773 633 Q 774 628 781 629 L 784 635 L 784 646 L 783 647 L 782 660 L 773 697 L 761 731 Q 754 746 745 759 L 730 773 L 714 780 L 701 781 L 700 782 L 690 782 L 689 781 L 687 782 L 788 822 L 789 805 L 790 804 L 790 793 L 791 792 L 791 781 L 792 780 L 793 749 L 794 748 L 794 663 L 793 662 L 793 647 L 792 646 L 791 624 L 790 623 L 788 603 L 782 576 L 774 553 Q 767 535 755 523 Q 739 504 718 490 Z M 294 504 L 288 507 L 279 516 Q 274 523 272 535 Q 270 552 276 562 L 284 568 Q 289 569 290 567 L 285 554 L 284 539 L 283 538 L 284 525 L 286 518 Q 289 509 295 505 L 294 504 Z M 769 509 L 761 511 Q 772 521 780 536 Q 789 553 795 574 L 800 596 L 802 614 L 803 615 L 803 623 L 804 624 L 807 691 L 813 692 L 836 692 L 844 690 L 853 685 L 863 674 L 870 658 L 875 634 L 878 607 L 879 606 L 879 598 L 880 597 L 880 565 Q 878 549 869 540 L 854 527 L 829 517 L 800 511 L 771 510 L 769 509 Z M 557 516 L 509 557 L 485 574 Q 482 573 483 576 L 497 584 Q 507 591 512 604 Q 513 611 508 613 L 503 612 L 495 601 L 487 594 L 483 592 Q 491 603 491 623 Q 490 627 484 626 L 480 623 Q 478 605 469 595 Q 458 581 442 573 L 441 585 L 439 595 Q 435 610 426 621 Q 416 634 398 640 L 415 651 L 418 651 L 428 645 L 440 641 L 451 640 L 452 639 L 467 640 L 487 646 L 526 666 L 529 622 L 530 621 L 533 585 L 534 584 L 534 575 L 535 570 L 539 566 Q 545 566 547 571 L 544 606 L 543 607 L 543 616 L 542 617 L 542 627 L 541 628 L 541 637 L 540 638 L 540 648 L 539 649 L 539 659 L 538 660 L 538 673 L 541 674 Q 549 664 565 663 L 566 658 L 566 640 L 567 639 L 567 628 L 568 627 L 569 610 L 570 609 L 570 603 L 575 578 L 575 573 L 579 558 L 579 555 L 569 566 L 559 574 L 553 571 L 554 538 L 558 519 Q 559 515 557 516 Z M 127 525 L 128 541 L 129 542 L 129 552 L 130 553 L 130 564 L 132 574 L 133 596 L 134 597 L 134 607 L 135 608 L 135 618 L 136 619 L 136 629 L 137 630 L 138 652 L 139 653 L 139 663 L 140 664 L 140 674 L 141 675 L 141 685 L 142 686 L 142 697 L 143 698 L 145 734 L 146 737 L 151 741 L 295 827 L 296 827 L 295 826 L 295 813 L 294 812 L 294 799 L 293 798 L 293 784 L 292 783 L 292 772 L 291 771 L 291 758 L 290 757 L 288 719 L 287 718 L 287 706 L 286 705 L 286 692 L 285 691 L 284 665 L 283 664 L 283 650 L 282 649 L 282 637 L 281 636 L 279 596 L 278 595 L 278 585 L 276 581 L 257 572 L 207 555 L 127 525 Z M 568 535 L 566 551 L 574 544 L 568 535 Z M 328 536 L 327 544 L 327 545 L 333 542 Q 335 543 334 541 L 328 536 Z M 406 540 L 410 552 L 410 567 L 409 572 Q 404 586 396 597 Q 388 606 375 609 L 361 608 L 359 608 L 362 616 Q 369 625 382 628 L 397 627 L 410 620 L 419 610 Q 426 598 429 583 L 428 568 L 420 552 Q 414 544 406 540 Z M 298 577 L 290 580 L 291 586 L 291 596 L 292 597 L 292 611 L 293 612 L 293 624 L 294 625 L 294 637 L 295 638 L 295 651 L 296 652 L 297 675 L 309 672 L 323 672 L 330 674 L 381 698 L 388 681 L 404 659 Q 390 652 379 640 L 374 639 L 362 632 Q 352 625 347 613 Q 344 606 346 596 L 344 590 L 338 591 Q 323 593 316 588 L 311 583 Q 310 580 305 581 L 298 577 Z M 449 652 Q 429 656 417 666 Q 398 681 390 708 Q 389 720 396 724 L 400 722 L 401 715 L 414 693 Q 423 682 435 675 L 444 671 L 449 671 Q 452 672 451 677 Q 445 684 437 688 Q 419 700 412 723 Q 410 733 414 738 L 419 741 Q 424 742 426 740 L 427 731 L 434 718 Q 442 706 456 699 L 470 693 L 476 693 Q 479 694 478 700 L 475 703 L 454 715 L 441 729 L 437 740 Q 436 747 439 751 L 444 754 L 450 752 L 455 748 L 461 740 Q 471 727 488 722 Q 494 721 495 725 L 495 728 L 490 733 Q 502 748 523 755 Q 545 758 557 750 L 561 744 L 563 736 L 563 727 L 564 726 L 562 708 L 558 698 L 554 693 Q 549 690 543 690 L 481 658 L 466 653 L 449 652 Z M 562 675 L 555 678 L 559 680 Q 566 686 571 696 L 575 710 L 575 720 L 576 721 L 575 722 L 575 737 L 574 742 L 568 756 L 560 762 Q 557 761 558 764 L 561 766 L 569 769 L 585 769 L 599 764 Q 606 758 610 749 L 615 728 L 614 708 Q 612 696 606 689 Q 601 681 591 677 L 583 675 L 562 675 Z M 309 684 L 299 687 L 301 723 L 428 786 Q 432 787 431 794 L 424 798 L 413 799 L 407 801 L 402 801 L 396 803 L 391 803 L 380 806 L 358 809 L 324 816 L 318 816 L 309 811 L 307 811 L 308 830 L 391 814 L 396 814 L 407 811 L 412 811 L 423 808 L 455 803 L 471 799 L 476 799 L 487 796 L 492 796 L 503 793 L 508 793 L 518 790 Q 521 791 520 789 L 513 783 L 463 759 L 460 759 Q 455 765 447 766 Q 438 766 434 762 Q 428 758 426 750 L 423 752 Q 415 753 411 750 Q 402 744 400 733 L 398 734 Q 391 735 388 732 Q 378 726 379 711 L 329 687 L 321 684 L 309 684 Z M 807 705 L 806 762 L 805 763 L 804 790 L 803 791 L 803 801 L 802 802 L 800 828 L 807 830 L 811 796 L 812 795 L 812 788 L 813 787 L 813 780 L 814 779 L 814 772 L 815 771 L 815 764 L 816 763 L 816 756 L 817 755 L 817 748 L 818 747 L 818 739 L 819 738 L 819 730 L 820 729 L 820 721 L 821 720 L 822 706 L 807 705 Z M 154 755 L 154 761 L 293 848 Q 295 846 294 841 L 250 815 L 154 755 Z M 521 800 L 513 804 L 490 808 L 485 810 L 465 813 L 449 817 L 444 817 L 438 819 L 433 819 L 422 822 L 417 822 L 307 844 L 305 845 L 305 854 L 320 853 L 352 846 L 357 846 L 477 822 L 518 812 L 520 810 L 522 804 Q 523 799 521 800 Z "/><path fill="#ffffff"  stroke="none" opacity="1" d="M 690.5 338 Q 697 337 699 340.5 L 700 346.5 L 696.5 350 Q 691.9 349.4 690.5 352 L 686 356.5 Q 679.2 365.2 676 377.5 L 672.5 381 Q 665.5 382.5 664 378.5 L 663 373.5 Q 667.5 353 681.5 342 L 690.5 338 Z "/><path fill="#ffffff"  stroke="none" opacity="1" d="M 505.5 345 L 509.5 345 L 514 349.5 L 518 361.5 L 518 375.5 L 516 381.5 L 513.5 384 L 509.5 385 L 505 381.5 L 501 371.5 L 500 352.5 L 503.5 346 L 505.5 345 Z "/><path fill="#ffffff"  stroke="none" opacity="1" d="M 600.5 574 Q 609.1 572.9 611 578.5 L 612 586.5 L 606.5 593 L 598.5 594 L 593 589.5 L 592 582.5 L 596.5 576 L 600.5 574 Z "/></svg>